<?xml version="1.0" standalone="no"?>
<!DOCTYPE svg PUBLIC "-//W3C//DTD SVG 20010904//EN"
 "http://www.w3.org/TR/2001/REC-SVG-20010904/DTD/svg10.dtd">
<svg version="1.0" xmlns="http://www.w3.org/2000/svg"
 width="1024.000000pt" height="1024.000000pt" viewBox="0 0 1024.000000 1024.000000"
 preserveAspectRatio="xMidYMid meet">

<g transform="translate(0.000000,1024.000000) scale(0.100000,-0.100000)"
fill="#000000" stroke="none">
<path d="M4774 9205 c-131 -32 -225 -93 -318 -206 -30 -37 -94 -161 -106 -209
-40 -150 -29 -292 34 -433 68 -154 229 -289 395 -332 l46 -11 5 -257 c3 -142
4 -262 2 -267 -2 -6 -48 -10 -108 -10 -123 0 -199 -21 -282 -77 -94 -64 -132
-171 -79 -221 41 -39 83 -30 176 37 l81 59 123 7 c186 11 487 3 517 -14 14 -8
48 -34 77 -58 63 -53 100 -68 136 -54 30 12 67 65 67 97 0 38 -56 110 -120
152 -86 58 -141 72 -277 72 l-113 0 0 269 0 269 38 6 c262 47 462 300 466 591
2 177 -51 312 -168 430 -158 158 -370 215 -592 160z m318 -233 c157 -76 252
-255 219 -415 -14 -68 -68 -177 -88 -177 -7 0 -12 -6 -11 -12 2 -7 -3 -12 -9
-10 -7 1 -13 -4 -13 -12 0 -8 -9 -18 -20 -21 -11 -3 -20 -10 -20 -15 0 -18
-116 -62 -179 -67 -267 -22 -490 235 -416 480 34 112 94 203 160 242 62 36
107 44 215 42 83 -3 103 -7 162 -35z"/>
<path d="M4895 8755 c-70 -25 -103 -76 -96 -150 10 -124 175 -159 253 -54 78
104 -33 249 -157 204z"/>
<path d="M1815 8709 c-140 -33 -256 -108 -339 -222 -89 -121 -128 -325 -90
-471 59 -228 237 -402 447 -434 143 -23 327 12 417 79 12 9 41 -16 157 -133
l142 -143 -93 -95 c-51 -52 -97 -106 -101 -118 -18 -60 26 -132 82 -132 55 0
96 36 368 316 154 159 317 327 362 373 l81 83 39 -30 c98 -79 192 -106 341
-100 97 4 114 8 186 41 243 113 366 411 272 660 -63 167 -180 275 -345 318
-288 74 -564 -82 -646 -364 -22 -77 -22 -206 -1 -282 10 -33 18 -67 19 -76 1
-9 -92 -114 -207 -233 l-209 -218 -144 144 -143 143 33 70 c45 93 59 152 58
255 -2 227 -122 426 -316 523 -99 49 -265 70 -370 46z m1897 -204 c62 -22 142
-94 175 -159 20 -39 27 -70 31 -132 4 -72 1 -89 -21 -138 -63 -137 -174 -203
-326 -194 -159 10 -275 116 -300 274 -10 70 -6 102 23 171 31 74 79 139 118
159 85 45 203 52 300 19z m-1739 5 c128 -21 235 -101 290 -218 26 -57 29 -70
25 -150 -2 -67 -9 -100 -29 -142 -105 -225 -402 -278 -577 -104 -29 30 -65 79
-80 111 -24 51 -27 70 -27 158 0 91 3 105 29 155 60 116 124 169 227 189 61
12 76 12 142 1z"/>
<path d="M3538 8294 c-78 -42 -74 -166 6 -209 60 -33 132 -2 162 70 15 36 13
59 -9 103 -23 48 -104 66 -159 36z"/>
<path d="M1856 8259 c-54 -42 -72 -120 -41 -179 23 -45 53 -60 117 -60 52 0
62 4 94 33 63 58 54 163 -18 207 -45 27 -117 27 -152 -1z"/>
<path d="M6170 8713 c-289 -48 -488 -355 -415 -638 24 -94 62 -162 131 -235
113 -119 234 -166 405 -158 111 6 184 31 261 89 l53 40 375 -379 c207 -209
386 -382 398 -386 30 -10 88 10 107 37 8 12 15 39 15 60 0 36 -8 47 -97 139
l-96 99 139 142 c76 78 140 143 140 145 1 1 31 -13 67 -33 88 -48 188 -69 299
-61 150 11 254 53 346 140 148 139 221 334 192 512 -24 153 -74 249 -180 347
-167 155 -434 191 -641 87 -142 -72 -252 -210 -293 -367 -35 -136 -18 -286 50
-426 l24 -52 -142 -142 -143 -143 -217 217 -217 218 26 75 c54 161 24 342 -80
475 -121 155 -313 230 -507 198z m226 -224 c125 -62 188 -160 188 -294 1 -68
-3 -88 -26 -130 -32 -61 -97 -125 -158 -157 -38 -19 -60 -23 -140 -23 -84 0
-101 3 -145 27 -64 34 -116 88 -152 158 -55 108 -33 247 58 360 41 50 66 67
131 85 78 22 165 13 244 -26z m1685 -17 c124 -59 199 -172 200 -298 1 -78 -5
-111 -33 -173 l-20 -45 -19 25 c-11 13 -17 17 -13 7 3 -9 0 -25 -6 -35 -10
-15 -11 -15 -6 -1 3 12 1 15 -10 11 -7 -3 -14 -11 -14 -19 0 -8 -9 -14 -21
-14 -11 0 -17 -4 -14 -10 3 -5 -1 -10 -9 -10 -9 0 -16 -4 -16 -10 0 -5 -7 -10
-15 -10 -8 0 -15 -4 -15 -9 0 -6 9 -8 20 -6 12 2 18 0 15 -6 -4 -5 -10 -7 -15
-4 -4 3 -11 -3 -14 -12 -5 -13 -9 -14 -15 -5 -6 10 -11 9 -22 -4 -12 -16 -12
-17 1 -10 8 4 4 -2 -9 -13 -24 -22 -51 -28 -51 -12 0 5 10 12 23 14 l22 4 -23
2 c-12 0 -25 -6 -28 -14 -4 -8 -15 -15 -26 -15 -12 0 -17 5 -13 13 4 6 0 4 -8
-5 -8 -10 -16 -16 -18 -14 -2 2 -26 7 -53 10 -102 14 -202 91 -252 193 -36 73
-45 197 -19 275 19 58 95 171 131 195 41 26 126 42 214 39 72 -2 95 -7 151
-34z m109 -562 c0 -5 -5 -10 -11 -10 -5 0 -7 5 -4 10 3 6 8 10 11 10 2 0 4 -4
4 -10z m-40 -29 c0 -5 -8 -15 -17 -22 -16 -12 -17 -12 -6 2 7 9 10 19 6 22 -3
4 -1 7 5 7 7 0 12 -4 12 -9z"/>
<path d="M6214 8300 c-39 -16 -64 -59 -64 -111 0 -40 5 -52 30 -78 17 -17 46
-33 64 -37 44 -8 102 19 121 57 20 37 19 99 -1 127 -31 44 -98 63 -150 42z"/>
<path d="M7885 8276 c-53 -23 -85 -71 -85 -124 0 -59 16 -90 59 -119 69 -46
156 -21 196 58 53 101 -66 231 -170 185z"/>
<path d="M8221 7984 c0 -11 3 -14 6 -6 3 7 2 16 -1 19 -3 4 -6 -2 -5 -13z"/>
<path d="M7063 8530 c-48 -20 -69 -87 -43 -135 41 -77 170 -36 170 54 0 27
-49 79 -80 85 -14 3 -35 1 -47 -4z"/>
<path d="M5376 7879 c-103 -81 -50 -239 79 -239 119 0 175 163 81 235 -43 33
-121 35 -160 4z"/>
<path d="M1974 7369 c-56 -20 -73 -111 -29 -154 57 -58 150 -9 147 76 -1 57
-65 99 -118 78z"/>
<path d="M3150 7326 c-82 -68 -696 -698 -749 -768 -89 -119 -161 -284 -161
-370 0 -41 5 -54 29 -79 24 -24 38 -29 76 -29 63 0 101 36 110 106 23 180 54
219 604 777 l215 217 369 0 369 0 29 29 c41 41 41 105 1 144 l-28 27 -400 0
-400 0 -64 -54z"/>
<path d="M5819 7351 c-46 -47 -36 -126 20 -156 25 -13 85 -15 393 -15 l363 0
350 -349 c295 -294 356 -351 390 -360 22 -6 91 -11 153 -11 130 0 128 3 46
-89 -48 -54 -77 -73 -154 -103 -56 -22 -227 -24 -313 -4 -73 17 -109 43 -183
131 -103 123 -289 328 -348 383 -31 29 -81 65 -112 79 -108 49 -244 13 -298
-80 -38 -67 -42 -116 -13 -173 46 -90 134 -110 227 -53 94 58 109 48 317 -201
223 -266 327 -320 602 -307 137 6 221 29 307 85 64 42 139 115 180 175 l25 38
50 -45 c75 -67 146 -97 245 -104 187 -11 329 68 406 226 30 62 32 74 32 172 1
123 -20 188 -84 269 -83 105 -179 146 -328 139 -129 -5 -200 -36 -279 -122
-50 -54 -69 -86 -111 -188 l-12 -28 -146 0 -146 0 -262 258 c-143 142 -309
304 -369 360 l-107 102 -406 0 -406 0 -29 -29z m2377 -559 c50 -26 99 -76 89
-93 -5 -7 -4 -10 2 -6 12 8 30 -32 37 -81 2 -19 0 -30 -6 -26 -5 3 -8 0 -6 -8
1 -7 -7 -23 -20 -36 -18 -18 -29 -22 -57 -16 -30 5 -35 3 -50 -26 -12 -23 -19
-29 -25 -20 -5 8 -9 9 -14 1 -4 -6 -4 -15 -1 -21 3 -5 -7 -12 -22 -15 -15 -4
-36 -10 -45 -15 -13 -7 -20 -5 -27 8 -9 15 -10 15 -11 1 0 -9 -8 -23 -17 -30
-11 -10 -14 -10 -9 -1 5 8 0 12 -17 12 -37 0 -92 66 -106 127 -20 82 12 168
92 244 31 30 34 31 103 26 42 -3 87 -13 110 -25z m24 -287 c0 -8 -7 -15 -15
-15 -9 0 -12 6 -9 15 4 8 10 15 15 15 5 0 9 -7 9 -15z"/>
<path d="M8070 6448 c-10 -20 -9 -21 2 -7 8 9 22 19 33 22 18 4 18 5 -2 6 -14
1 -26 -7 -33 -21z"/>
<path d="M8010 6440 c0 -5 5 -10 11 -10 5 0 7 5 4 10 -3 6 -8 10 -11 10 -2 0
-4 -4 -4 -10z"/>
<path d="M7793 7348 c-51 -55 -17 -158 52 -158 62 0 116 60 100 112 -14 44
-45 68 -90 68 -30 0 -47 -6 -62 -22z"/>
<path d="M1678 6999 c-119 -17 -222 -100 -286 -228 -35 -72 -37 -80 -37 -176
0 -97 2 -104 38 -178 45 -91 106 -155 185 -194 52 -26 66 -28 167 -28 90 0
120 4 165 23 65 26 123 76 173 150 50 74 62 120 61 238 -1 91 -4 108 -32 167
-62 134 -172 214 -310 226 -43 3 -98 3 -124 0z m122 -191 c55 -16 110 -59 136
-108 29 -54 33 -154 9 -200 -15 -29 -35 -40 -35 -19 0 5 -5 7 -11 4 -6 -4 -8
-14 -4 -22 5 -14 3 -14 -12 -2 -15 12 -16 12 -11 -3 9 -24 -3 -30 -19 -10 -14
16 -14 16 -9 0 3 -10 1 -18 -4 -18 -6 0 -10 5 -10 12 0 6 -7 3 -16 -8 -8 -10
-12 -13 -8 -5 5 9 3 12 -4 7 -7 -4 -12 -13 -12 -21 0 -16 -27 -28 -35 -15 -4
6 -14 6 -27 -1 -47 -25 -122 15 -165 89 -34 58 -38 146 -10 203 24 48 84 118
111 129 22 10 79 5 136 -12z"/>
<path d="M1766 6413 c-6 -14 -5 -15 5 -6 7 7 10 15 7 18 -3 3 -9 -2 -12 -12z"/>
<path d="M3487 6879 c-77 -18 -124 -56 -152 -121 -50 -120 24 -250 158 -278
128 -26 267 78 267 200 0 86 -81 180 -172 199 -55 12 -49 12 -101 0z"/>
<path d="M3068 6383 c-43 -35 -49 -41 -124 -129 -124 -144 -221 -318 -278
-496 -59 -184 -83 -314 -95 -508 l-6 -105 -212 -3 -213 -2 -5 27 c-15 70 -39
133 -71 187 -19 32 -33 62 -32 67 2 4 63 70 135 147 73 77 137 151 142 163 11
31 -5 88 -32 110 -12 10 -38 18 -59 19 -30 0 -48 -10 -100 -54 -35 -30 -105
-100 -156 -155 l-93 -100 -53 30 c-66 37 -166 59 -271 59 -160 0 -290 -54
-405 -170 -123 -122 -170 -236 -170 -410 0 -154 40 -263 140 -388 157 -193
459 -257 689 -145 l74 36 136 -137 c75 -76 143 -141 151 -146 24 -15 93 -12
117 5 13 9 28 33 34 55 16 52 5 68 -155 230 l-128 129 25 33 c29 38 54 94 71
158 l12 45 212 3 c165 2 213 0 216 -10 2 -7 11 -74 19 -148 22 -185 77 -392
151 -561 6 -14 -11 -17 -161 -22 -177 -6 -233 -16 -327 -64 -48 -24 -176 -142
-209 -193 l-17 -24 -27 26 c-62 57 -158 83 -286 76 -70 -4 -97 -10 -151 -37
-120 -59 -194 -178 -203 -324 -11 -173 66 -311 215 -384 52 -26 66 -28 172
-28 106 0 120 2 172 28 79 39 143 107 187 197 34 71 36 81 36 175 l0 100 60
80 c68 91 131 138 205 154 28 6 138 11 244 11 l194 0 53 -77 c30 -42 57 -82
61 -88 8 -13 -184 -215 -204 -215 -7 0 -53 41 -104 90 -84 83 -94 90 -131 90
-80 0 -120 -84 -74 -155 35 -53 745 -764 774 -775 32 -11 422 -14 658 -3 142
6 155 8 176 29 32 32 32 101 0 136 l-24 26 -367 4 -366 3 -195 195 -195 195
87 87 c48 49 91 88 94 88 4 0 58 -51 121 -114 92 -94 126 -121 183 -148 65
-31 77 -33 175 -33 99 0 109 2 172 33 47 23 84 52 126 97 l59 65 44 -33 c131
-99 340 -194 549 -247 343 -88 731 -60 1095 81 90 34 237 118 314 179 37 29
58 39 72 35 11 -4 57 -45 104 -91 96 -97 134 -117 226 -117 105 0 189 52 226
140 17 42 17 122 -1 164 -28 66 -108 119 -178 119 -52 0 -133 -43 -166 -88
l-28 -40 -70 32 c-38 18 -95 43 -127 55 -32 13 -56 29 -53 35 3 6 10 27 17 48
16 48 74 125 126 164 66 50 141 74 232 74 107 0 166 -21 296 -107 131 -87 154
-92 230 -48 101 58 263 290 339 485 57 146 126 445 126 546 l0 34 213 0 212 0
17 -58 c9 -31 36 -88 59 -126 l41 -68 -65 -67 c-234 -237 -316 -351 -352 -490
-23 -90 -5 -154 51 -179 43 -20 74 -14 109 21 27 27 34 44 40 93 12 100 53
161 225 338 l156 159 25 -16 c42 -28 162 -66 230 -73 71 -7 199 8 271 32 63
21 152 80 211 140 176 178 213 486 87 709 -105 184 -282 284 -502 285 -98 0
-166 -14 -251 -53 l-68 -31 -122 120 c-165 163 -191 184 -228 184 -43 0 -99
-56 -99 -99 0 -35 23 -63 160 -202 47 -47 95 -97 108 -111 l24 -26 -39 -58
c-21 -31 -50 -94 -64 -138 l-27 -81 -204 -3 -205 -2 -7 72 c-13 138 -18 173
-32 258 -28 171 -72 305 -115 351 -36 38 -85 40 -122 3 -39 -38 -41 -70 -13
-160 108 -342 116 -713 22 -1054 -54 -196 -143 -387 -233 -498 l-35 -42 -46
39 c-26 22 -64 55 -85 73 l-37 33 50 97 c117 224 171 463 176 768 3 208 -9
324 -45 465 -27 102 -82 245 -93 239 -4 -3 -6 1 -3 8 3 7 -4 28 -15 46 -15 24
-24 31 -33 24 -9 -8 -12 -3 -13 16 -1 15 1 21 3 15 3 -7 9 -13 14 -13 11 0
-29 64 -82 133 -21 26 -40 43 -44 37 -3 -5 -1 -10 4 -10 6 0 11 -7 11 -16 0
-18 23 -44 39 -44 15 0 14 -17 -1 -23 -7 -3 -3 -6 10 -6 12 -1 22 -7 22 -15 0
-9 -9 -12 -27 -9 -24 4 -25 2 -11 -7 10 -6 24 -10 31 -8 7 2 13 -1 14 -7 1 -5
-6 -9 -17 -7 -19 3 -45 -30 -33 -42 3 -3 -1 -6 -10 -6 -13 0 -17 9 -17 35 0
19 -5 35 -10 35 -13 0 -9 -63 5 -73 6 -5 3 -13 -9 -22 -11 -8 -17 -16 -13 -16
25 -5 33 -3 44 11 18 24 26 4 9 -23 -9 -13 -14 -33 -11 -43 3 -10 0 -8 -7 6
-24 48 -48 44 -62 -10 -6 -22 -5 -23 6 -9 11 13 15 14 26 3 7 -8 8 -15 2 -19
-6 -3 -10 -4 -10 0 0 3 -8 2 -17 -4 -13 -6 -22 -5 -31 5 -11 12 -10 15 3 20
12 5 13 9 4 20 -19 23 -26 16 -33 -28 -5 -29 -10 -38 -15 -29 -5 7 -14 10 -20
7 -14 -9 -14 4 -1 24 9 13 11 13 21 0 9 -13 10 -12 5 3 -3 10 -6 21 -6 23 0
13 -20 1 -25 -16 -3 -11 -13 -20 -21 -20 -9 0 -24 -5 -36 -11 -19 -10 -19 -11
7 -25 29 -15 50 -10 25 6 -9 6 -10 10 -3 10 6 0 14 -4 17 -8 9 -15 -6 -52 -20
-52 -8 0 -14 -7 -14 -15 0 -9 6 -12 15 -9 8 4 15 1 15 -5 0 -6 -7 -11 -16 -11
-14 0 -14 -3 -4 -15 9 -10 9 -15 1 -15 -6 0 -11 -8 -11 -17 0 -15 -2 -16 -10
-3 -5 8 -5 19 0 25 13 16 -4 37 -23 29 -15 -5 -22 -53 -7 -52 18 1 20 -4 6
-17 -14 -14 -19 -14 -52 0 -20 8 -38 15 -41 15 -9 0 23 -27 37 -32 11 -3 10
-7 -8 -17 -24 -13 -29 -40 -10 -59 6 -6 9 -14 6 -17 -3 -3 -13 1 -21 10 -22
21 -44 20 -26 -1 12 -15 11 -16 -8 -10 -12 4 -24 2 -28 -5 -6 -8 -10 -7 -17 2
-7 11 -8 9 -6 -5 2 -12 -5 -21 -20 -27 -16 -6 -21 -5 -16 2 4 7 1 10 -7 7 -7
-2 -16 -15 -20 -29 -4 -13 -7 -18 -8 -11 -1 14 -71 17 -71 3 0 -13 -40 -21
-41 -8 0 7 -4 3 -8 -8 -8 -19 -8 -19 -20 3 -7 12 -10 26 -7 31 3 4 -1 8 -9 8
-18 0 -19 8 7 -73 20 -61 23 -90 23 -249 0 -211 -16 -287 -90 -443 -142 -297
-377 -497 -665 -565 -88 -21 -168 -37 -210 -42 -335 -40 -468 -67 -533 -110
-39 -25 -118 -30 -160 -10 -53 25 -71 59 -72 132 0 53 4 66 30 100 27 33 152
109 163 98 2 -1 31 4 65 12 34 8 80 16 102 19 22 3 101 14 175 24 74 11 162
22 195 25 33 4 76 10 95 15 19 5 51 12 70 15 56 9 131 35 195 69 78 40 227
189 278 276 38 65 81 188 95 271 22 135 -11 310 -74 378 -122 136 -275 78
-465 -177 -206 -275 -243 -322 -306 -384 -108 -106 -206 -156 -339 -173 -62
-9 -176 8 -238 35 -25 10 -46 15 -46 11 0 -14 136 -136 172 -155 24 -13 27
-16 9 -12 -17 3 -25 0 -28 -14 -3 -13 -18 -22 -39 -26 -24 -4 -34 -12 -34 -25
0 -12 -7 -19 -20 -19 -15 0 -20 -7 -20 -25 0 -16 -6 -25 -15 -25 -21 0 -19
-18 3 -23 15 -3 15 -5 -3 -12 -11 -5 -23 -13 -27 -18 -6 -10 -29 -11 -88 -5
-22 3 -24 -1 -25 -32 0 -29 -4 -36 -23 -38 -18 -3 -21 -8 -16 -24 4 -14 3 -18
-6 -13 -7 4 -9 17 -6 31 9 34 -10 30 -26 -6 -7 -16 -19 -30 -27 -30 -9 0 -11
-8 -6 -27 6 -27 6 -27 -9 -8 -13 18 -13 22 4 40 24 27 33 61 21 82 -9 16 -10
14 -11 -9 0 -37 -10 -58 -26 -58 -8 0 -14 -5 -14 -12 0 -6 -3 -8 -6 -5 -4 4
-1 14 6 23 21 24 20 54 -1 54 -11 0 -16 -5 -13 -13 2 -7 -3 -27 -12 -43 l-16
-29 6 35 c4 28 3 31 -5 17 -7 -11 -17 -16 -29 -12 -10 3 -21 1 -25 -5 -3 -5
-14 -10 -23 -9 -11 0 -12 3 -4 6 6 2 12 11 12 18 0 8 9 17 20 20 22 7 27 25 7
25 -19 0 -47 -37 -54 -71 -5 -27 -7 -28 -23 -14 -19 17 -40 20 -40 5 0 -5 8
-10 17 -10 12 0 14 -3 6 -11 -8 -8 -18 -6 -37 6 -24 16 -27 16 -52 -4 -29 -23
-54 -27 -54 -10 0 6 7 8 16 5 8 -3 12 -2 9 4 -3 6 1 10 9 10 9 0 13 6 10 14
-3 7 -12 13 -21 12 -9 0 -18 5 -21 13 -3 9 2 11 19 7 13 -3 18 -3 11 0 -6 3
-10 9 -7 14 3 4 -2 10 -10 14 -9 3 -15 0 -15 -9 0 -9 -10 -15 -22 -16 -13 0
-18 -3 -11 -5 8 -4 8 -12 -3 -32 -9 -17 -10 -28 -3 -33 6 -3 -4 -6 -21 -7 -31
-1 -31 0 -11 17 14 12 17 21 10 32 -7 11 -9 11 -9 -3 0 -11 -8 -18 -20 -18
-11 0 -20 -7 -20 -15 0 -8 -4 -15 -10 -15 -5 0 -10 5 -10 12 0 6 -3 8 -7 5 -3
-4 -12 1 -19 11 -12 15 -13 13 -7 -16 4 -26 1 -37 -17 -54 l-22 -21 23 -14 24
-14 -25 7 c-27 7 -42 23 -36 39 5 14 -21 37 -29 26 -6 -11 5 -44 19 -53 6 -4
8 -10 4 -13 -3 -4 -18 6 -33 22 l-28 28 21 -31 c29 -42 49 -58 57 -44 3 5 11
10 18 10 6 0 2 -7 -9 -15 -18 -14 -15 -19 69 -100 48 -47 96 -85 105 -85 9 0
36 -9 59 -20 111 -50 113 -213 3 -271 -50 -27 -143 -25 -200 4 -58 29 -280
270 -362 392 -143 213 -264 516 -315 785 -24 131 -24 540 0 680 57 328 192
604 401 820 l69 71 -29 32 c-69 78 -98 85 -156 40z m3523 -516 c-6 -6 -11 -15
-11 -21 0 -5 3 -7 6 -3 4 3 13 -1 21 -9 9 -8 12 -18 9 -21 -13 -14 -46 31 -40
54 4 13 11 20 16 17 6 -4 6 -10 -1 -17z m69 -37 c0 -5 -5 -10 -11 -10 -5 0 -7
5 -4 10 3 6 8 10 11 10 2 0 4 -4 4 -10z m-177 -137 c3 -5 -15 -18 -39 -30 -26
-14 -45 -19 -49 -13 -4 6 -1 9 7 8 8 -2 12 5 10 17 -2 17 -1 18 8 5 10 -13 13
-13 23 3 12 18 32 23 40 10z m7 -33 c0 -5 -2 -10 -4 -10 -3 0 -8 5 -11 10 -3
6 -1 10 4 10 6 0 11 -4 11 -10z m-195 -150 c-3 -5 -12 -10 -18 -10 -7 0 -6 4
3 10 19 12 23 12 15 0z m-15 -40 c-8 -5 -19 -10 -25 -10 -5 0 -3 5 5 10 8 5
20 10 25 10 6 0 3 -5 -5 -10z m2168 -72 c80 -30 151 -92 192 -168 32 -60 34
-71 35 -157 0 -66 -4 -96 -14 -105 -12 -11 -13 -10 -8 5 4 11 1 17 -8 17 -8 0
-14 -5 -13 -12 2 -7 -4 -12 -12 -13 -11 0 -14 -9 -12 -34 3 -22 0 -31 -7 -26
-6 3 -9 10 -7 14 3 4 0 13 -5 21 -8 11 -9 7 -6 -15 2 -16 7 -39 11 -50 4 -11
0 -8 -9 8 -15 26 -35 36 -35 18 0 -5 -11 -12 -25 -15 -17 -4 -25 -13 -25 -29
1 -22 1 -22 14 3 l14 25 -1 -28 c-1 -15 -5 -27 -9 -27 -5 0 -8 -7 -8 -15 0 -9
-6 -12 -15 -9 -11 5 -13 2 -9 -11 6 -15 2 -17 -24 -13 -17 2 -29 1 -27 -3 3
-4 -2 -12 -10 -19 -8 -7 -15 -9 -15 -4 -1 5 -8 -2 -16 -16 -14 -24 -15 -24
-11 -2 3 12 1 20 -4 16 -5 -3 -9 -12 -9 -20 0 -8 -4 -14 -10 -14 -5 0 -10 -8
-11 -17 0 -14 -2 -15 -6 -3 -10 25 -27 30 -50 15 -30 -20 -52 -19 -117 6 -110
41 -207 162 -226 283 -23 145 65 328 186 386 88 43 210 46 312 8z m-6746 -11
c66 -32 135 -103 174 -178 25 -48 28 -64 29 -154 0 -92 -2 -104 -29 -152 -16
-29 -33 -50 -39 -46 -6 3 -7 1 -3 -6 4 -6 2 -19 -5 -27 -10 -12 -14 -12 -20
-2 -6 9 -9 7 -9 -8 0 -61 -176 -134 -290 -121 -133 16 -237 91 -297 215 -31
65 -36 86 -36 147 0 86 23 161 74 236 66 98 144 130 299 126 81 -2 104 -7 152
-30z m4483 23 c3 -6 -1 -7 -9 -4 -18 7 -21 14 -7 14 6 0 13 -4 16 -10z m85 6
c0 -2 -7 -7 -16 -10 -8 -3 -12 -2 -9 4 6 10 25 14 25 6z m-160 -56 c0 -5 -4
-10 -10 -10 -5 0 -10 5 -10 10 0 6 5 10 10 10 6 0 10 -4 10 -10z m2460 -486
c0 -8 -4 -12 -10 -9 -5 3 -10 1 -10 -6 0 -7 -3 -10 -6 -6 -9 9 3 37 16 37 5 0
10 -7 10 -16z m-241 -177 c0 -9 -2 -8 -6 1 -2 6 -10 9 -15 6 -7 -4 -8 -2 -4 5
9 13 26 5 25 -12z m-4195 -466 c-7 -9 -24 13 -24 32 0 21 1 21 13 -3 8 -14 12
-27 11 -29z m16 -21 c0 -5 -5 -10 -11 -10 -5 0 -7 5 -4 10 3 6 8 10 11 10 2 0
4 -4 4 -10z m-526 -32 c-7 -10 -34 -10 -34 0 0 4 5 13 12 20 9 9 14 9 19 0 4
-7 5 -16 3 -20z m253 1 c1 -12 1 -20 0 -18 -2 2 -9 12 -16 22 -11 14 -11 17 1
17 7 0 14 -10 15 -21z m-23 -15 c9 -24 7 -27 -9 -10 -17 17 -19 26 -6 26 5 0
12 -7 15 -16z m-144 -5 c0 -5 5 -7 10 -4 6 3 18 -1 27 -10 14 -14 14 -18 2
-26 -8 -5 -18 -8 -24 -8 -5 0 -4 3 3 6 16 6 15 23 -2 23 -7 0 -19 7 -26 15 -9
10 -9 15 -1 15 6 0 11 -5 11 -11z m80 -15 c0 -8 -4 -12 -10 -9 -5 3 -10 10
-10 16 0 5 5 9 10 9 6 0 10 -7 10 -16z m-183 -8 c-3 -7 -1 -18 4 -23 6 -6 3
-15 -8 -24 -16 -13 -17 -12 -5 3 10 12 10 17 1 20 -12 4 -6 38 7 38 3 0 4 -6
1 -14z m87 5 c3 -4 -1 -16 -8 -26 -13 -17 -13 -17 -13 8 0 26 10 36 21 18z
m-44 -39 c0 -29 -14 -20 -25 15 -5 18 -3 22 9 17 9 -3 16 -18 16 -32z m186 26
c5 -7 3 -8 -6 -3 -8 5 -18 1 -27 -10 -7 -11 -13 -14 -13 -9 0 12 21 34 31 34
4 0 11 -5 15 -12z m-361 -17 c-3 -5 5 -12 17 -14 17 -3 14 -5 -9 -6 -33 -1
-45 13 -20 22 18 8 19 8 12 -2z m50 -41 c-3 -5 -11 -10 -16 -10 -6 0 -7 5 -4
10 3 6 11 10 16 10 6 0 7 -4 4 -10z m162 -6 c-3 -3 -12 -4 -19 -1 -8 3 -5 6 6
6 11 1 17 -2 13 -5z m-1862 -243 c43 -19 100 -77 117 -120 29 -73 -1 -188 -62
-231 -37 -26 -141 -46 -191 -36 -85 16 -159 107 -159 196 0 67 57 167 115 198
32 18 135 14 180 -7z"/>
<path d="M8290 5200 c-40 -10 -106 -75 -116 -114 -15 -60 23 -144 77 -172 77
-39 171 -7 210 74 58 118 -44 243 -171 212z"/>
<path d="M8470 4835 c0 -8 7 -15 15 -15 9 0 12 6 9 15 -4 8 -10 15 -15 15 -5
0 -9 -7 -9 -15z"/>
<path d="M1458 5185 c-64 -35 -89 -145 -48 -212 72 -119 249 -80 274 60 9 48
-20 116 -62 145 -36 26 -122 29 -164 7z"/>
<path d="M1759 4783 c-13 -16 -12 -17 4 -4 9 7 17 15 17 17 0 8 -8 3 -21 -13z"/>
<path d="M1715 4760 c-3 -6 1 -7 9 -4 18 7 21 14 7 14 -6 0 -13 -4 -16 -10z"/>
<path d="M5645 6211 c-16 -51 -87 -109 -167 -135 -24 -8 -90 -26 -148 -39 -94
-22 -127 -29 -220 -42 -14 -2 -68 -11 -120 -20 -100 -17 -110 -18 -205 -35
-137 -25 -284 -91 -349 -159 -123 -126 -176 -215 -215 -361 -38 -142 -34 -272
14 -379 43 -95 118 -151 206 -151 41 0 41 11 0 47 -64 54 -84 122 -79 263 4
101 8 124 36 190 66 155 195 281 339 331 29 10 176 37 326 59 384 58 459 74
547 118 90 45 130 90 137 156 7 61 0 84 -42 134 -41 47 -51 51 -60 23z"/>
<path d="M6420 6129 c0 -5 5 -7 10 -4 6 3 10 8 10 11 0 2 -4 4 -10 4 -5 0 -10
-5 -10 -11z"/>
<path d="M6483 6081 c1 -22 12 -28 21 -12 3 5 -1 14 -9 21 -11 9 -14 8 -12 -9z"/>
<path d="M6448 6073 c7 -3 16 -2 19 1 4 3 -2 6 -13 5 -11 0 -14 -3 -6 -6z"/>
<path d="M1165 6045 c-53 -53 -15 -145 60 -145 77 0 114 89 59 144 -35 35 -86
35 -119 1z"/>
<path d="M8575 6045 c-28 -27 -34 -88 -11 -117 54 -72 174 -10 152 78 -17 64
-95 86 -141 39z"/>
<path d="M6478 6025 c2 -14 10 -25 17 -25 10 0 11 5 2 25 -15 32 -26 32 -19 0z"/>
<path d="M6445 6030 c3 -5 8 -10 11 -10 2 0 4 5 4 10 0 6 -5 10 -11 10 -5 0
-7 -4 -4 -10z"/>
<path d="M6451 5974 c-7 -8 -11 -17 -9 -20 3 -2 13 5 23 16 10 11 14 20 9 20
-5 -1 -15 -8 -23 -16z"/>
<path d="M6510 5969 c0 -5 5 -7 10 -4 6 3 10 8 10 11 0 2 -4 4 -10 4 -5 0 -10
-5 -10 -11z"/>
<path d="M6526 5945 c-3 -8 -1 -15 4 -15 13 0 22 18 11 24 -5 3 -11 -1 -15 -9z"/>
<path d="M6395 5940 c-3 -5 -1 -10 4 -10 6 0 11 5 11 10 0 6 -2 10 -4 10 -3 0
-8 -4 -11 -10z"/>
<path d="M6545 5900 c4 -6 11 -8 16 -5 14 9 11 15 -7 15 -8 0 -12 -5 -9 -10z"/>
<path d="M6482 5874 c-11 -12 -10 -17 2 -30 15 -14 16 -12 16 15 0 35 0 36
-18 15z"/>
<path d="M6325 5860 c3 -5 8 -10 11 -10 2 0 4 5 4 10 0 6 -5 10 -11 10 -5 0
-7 -4 -4 -10z"/>
<path d="M6440 5853 c0 -13 5 -23 10 -23 13 0 13 11 0 30 -8 12 -10 11 -10 -7z"/>
<path d="M6437 5813 c-4 -3 -7 -11 -7 -17 0 -6 5 -5 12 2 6 6 9 14 7 17 -3 3
-9 2 -12 -2z"/>
<path d="M6465 5810 c3 -5 10 -10 16 -10 5 0 9 5 9 10 0 6 -7 10 -16 10 -8 0
-12 -4 -9 -10z"/>
<path d="M6350 5800 c0 -5 5 -10 10 -10 6 0 10 5 10 10 0 6 -4 10 -10 10 -5 0
-10 -4 -10 -10z"/>
<path d="M6200 5680 c0 -5 5 -10 10 -10 6 0 10 5 10 10 0 6 -4 10 -10 10 -5 0
-10 -4 -10 -10z"/>
<path d="M6318 5663 c7 -3 16 -2 19 1 4 3 -2 6 -13 5 -11 0 -14 -3 -6 -6z"/>
<path d="M6260 5640 c0 -5 5 -10 10 -10 6 0 10 5 10 10 0 6 -4 10 -10 10 -5 0
-10 -4 -10 -10z"/>
<path d="M6290 5640 c0 -5 4 -10 9 -10 6 0 13 5 16 10 3 6 -1 10 -9 10 -9 0
-16 -4 -16 -10z"/>
<path d="M6210 5590 c0 -5 5 -10 10 -10 6 0 10 5 10 10 0 6 -4 10 -10 10 -5 0
-10 -4 -10 -10z"/>
<path d="M6245 5581 c-6 -11 9 -23 19 -14 9 9 7 23 -3 23 -6 0 -12 -4 -16 -9z"/>
<path d="M6110 5499 c0 -5 5 -7 10 -4 6 3 10 8 10 11 0 2 -4 4 -10 4 -5 0 -10
-5 -10 -11z"/>
<path d="M6172 5492 c-24 -7 -31 -24 -13 -30 6 -2 11 1 11 8 0 6 4 9 9 6 5 -3
11 1 15 9 3 8 4 15 3 14 -1 -1 -12 -4 -25 -7z"/>
<path d="M6085 5460 c-3 -5 1 -10 10 -10 9 0 13 5 10 10 -3 6 -8 10 -10 10 -2
0 -7 -4 -10 -10z"/>
<path d="M3645 4320 c3 -5 8 -10 11 -10 2 0 4 5 4 10 0 6 -5 10 -11 10 -5 0
-7 -4 -4 -10z"/>
<path d="M3720 4320 c0 -5 5 -10 10 -10 6 0 10 5 10 10 0 6 -4 10 -10 10 -5 0
-10 -4 -10 -10z"/>
<path d="M8613 4268 c-106 -28 -67 -184 42 -169 33 4 65 48 65 90 0 59 -48 95
-107 79z"/>
<path d="M1160 4248 c-27 -29 -27 -87 1 -122 29 -37 81 -36 120 3 37 37 38 78
4 115 -32 34 -94 37 -125 4z"/>
<path d="M3560 4250 c-14 -10 -21 -22 -17 -26 4 -4 17 3 28 15 27 29 21 35
-11 11z"/>
<path d="M3668 4237 c3 -30 7 -33 34 -31 28 2 47 17 48 37 0 11 -10 8 -26 -8
-20 -20 -40 -20 -24 0 15 18 13 20 -15 29 -19 5 -21 2 -17 -27z"/>
<path d="M3777 4263 c-4 -3 -7 -11 -7 -17 0 -6 5 -5 12 2 6 6 9 14 7 17 -3 3
-9 2 -12 -2z"/>
<path d="M3508 4253 c7 -3 16 -2 19 1 4 3 -2 6 -13 5 -11 0 -14 -3 -6 -6z"/>
<path d="M3870 4229 c0 -5 5 -7 10 -4 6 3 10 8 10 11 0 2 -4 4 -10 4 -5 0 -10
-5 -10 -11z"/>
<path d="M3760 4218 c0 -4 4 -8 9 -8 6 0 12 4 15 8 3 5 -1 9 -9 9 -8 0 -15 -4
-15 -9z"/>
<path d="M3490 4192 c0 -12 3 -12 18 -1 9 7 19 14 21 16 2 1 -6 1 -18 0 -11
-1 -21 -8 -21 -15z"/>
<path d="M3385 4170 c-3 -5 -2 -10 4 -10 5 0 13 5 16 10 3 6 2 10 -4 10 -5 0
-13 -4 -16 -10z"/>
<path d="M3350 4149 c0 -5 5 -7 10 -4 6 3 10 8 10 11 0 2 -4 4 -10 4 -5 0 -10
-5 -10 -11z"/>
<path d="M3410 4140 c0 -5 5 -10 10 -10 6 0 10 5 10 10 0 6 -4 10 -10 10 -5 0
-10 -4 -10 -10z"/>
<path d="M7993 4002 c-75 -27 -127 -64 -173 -126 -132 -175 -113 -389 49 -537
85 -78 162 -104 288 -96 69 4 96 11 149 38 110 56 172 139 200 271 37 179 -44
350 -208 435 -71 36 -224 44 -305 15z m222 -187 c71 -36 137 -151 106 -187 -6
-7 -20 -24 -31 -37 -16 -19 -20 -20 -20 -8 0 10 -4 17 -10 17 -5 0 -10 -5 -10
-11 0 -7 -12 -8 -32 -4 l-33 7 30 -26 30 -25 -33 4 c-27 3 -33 1 -28 -12 4
-11 2 -14 -9 -9 -9 3 -15 0 -15 -9 0 -9 -10 -15 -25 -15 -14 0 -25 -4 -25 -10
0 -25 -20 -51 -34 -43 -4 3 -2 9 5 14 10 6 7 8 -8 6 -12 0 -19 -5 -16 -10 7
-12 -35 2 -63 20 -36 23 -74 105 -74 160 0 60 38 141 83 179 28 24 37 26 101
22 44 -2 86 -11 111 -23z m-62 -332 c-7 -2 -19 -2 -25 0 -7 3 -2 5 12 5 14 0
19 -2 13 -5z"/>
<path d="M6966 3425 l-361 -366 -235 1 c-129 0 -300 -3 -380 -7 -141 -6 -146
-7 -172 -34 -38 -37 -38 -88 0 -128 l27 -30 395 -7 395 -6 35 26 c69 52 780
769 786 792 15 61 -31 124 -92 124 -35 0 -53 -16 -398 -365z"/>
<path d="M2414 3190 c-33 -13 -64 -59 -64 -96 0 -36 1 -36 134 -178 l65 -69
-131 -134 c-73 -73 -135 -138 -139 -145 -6 -9 -22 -5 -61 14 -85 42 -144 58
-232 64 -194 15 -356 -52 -481 -197 -62 -73 -91 -130 -116 -226 -79 -312 101
-619 412 -699 48 -12 90 -15 169 -11 165 8 254 48 372 168 114 116 177 283
163 437 -7 86 -37 189 -74 254 l-26 48 143 142 142 143 217 -217 217 -217 -18
-53 c-34 -104 -40 -195 -21 -289 42 -212 199 -378 393 -418 127 -26 288 -5
384 51 66 40 152 132 192 207 104 198 87 399 -49 579 -163 217 -477 263 -708
103 l-44 -30 -179 182 c-99 100 -260 265 -359 367 -99 102 -189 192 -200 201
-26 20 -74 29 -101 19z m-403 -764 c148 -34 256 -156 273 -307 6 -47 4 -58
-13 -73 -16 -15 -18 -22 -9 -41 8 -19 7 -27 -6 -40 -9 -9 -16 -13 -16 -8 0 5
5 14 12 21 7 7 10 12 8 13 -3 0 -13 2 -22 4 -10 2 -15 -2 -12 -10 3 -7 0 -16
-5 -20 -6 -3 -9 -10 -6 -15 3 -4 -2 -10 -10 -13 -10 -4 -12 -1 -8 10 5 13 3
14 -18 3 -21 -12 -23 -12 -11 2 8 10 9 19 4 22 -12 7 -26 -22 -23 -46 1 -9 -3
-20 -10 -24 -8 -4 -9 -3 -5 4 4 7 3 12 -3 12 -5 0 -13 -5 -16 -11 -4 -6 -13
-8 -21 -5 -8 3 -14 0 -13 -7 3 -28 -2 -57 -10 -57 -5 0 -7 9 -4 21 5 17 2 20
-13 17 -12 -2 -18 -11 -16 -22 3 -15 0 -16 -17 -6 -14 7 -21 7 -21 0 0 -5 -7
-10 -15 -10 -9 0 -19 -8 -22 -17 -4 -10 -11 -22 -17 -26 -7 -5 -4 -7 6 -5 9 2
17 -1 18 -6 0 -6 -7 -11 -17 -12 -10 -2 -19 -8 -21 -14 -2 -5 -8 -8 -13 -5 -5
4 -6 -1 -3 -10 6 -13 -1 -15 -42 -11 -98 10 -178 60 -238 150 -87 131 -79 291
22 436 44 63 82 88 161 106 75 16 125 16 192 0z m1696 -97 c78 -29 162 -113
192 -193 68 -182 -29 -377 -211 -426 -67 -18 -173 -9 -231 19 -66 32 -129 96
-162 167 -23 48 -28 72 -28 129 1 111 60 236 131 278 84 49 216 60 309 26z
m-1577 -469 c0 -5 -4 -10 -10 -10 -5 0 -10 5 -10 10 0 6 5 10 10 10 6 0 10 -4
10 -10z m-123 -43 c6 -7 14 -37 9 -37 -1 0 -13 11 -25 24 -17 18 -19 24 -7 22
8 -1 19 -5 23 -9z"/>
<path d="M1884 2190 c-27 -11 -72 -65 -80 -96 -3 -13 -3 -39 0 -57 12 -64 53
-99 131 -111 132 -21 190 182 72 254 -33 21 -87 25 -123 10z"/>
<path d="M3543 2114 c-43 -22 -65 -59 -65 -106 1 -71 55 -123 125 -122 75 2
133 97 102 170 -25 61 -103 88 -162 58z"/>
<path d="M7365 3184 c-16 -7 -73 -57 -125 -111 -425 -439 -597 -618 -608 -634
-17 -25 -31 -24 -61 5 -68 65 -236 113 -351 101 -142 -15 -239 -63 -337 -169
-150 -160 -187 -402 -90 -592 39 -77 110 -157 178 -203 86 -58 169 -81 288
-81 159 0 265 42 366 144 86 87 144 204 159 321 8 58 -12 203 -35 254 -10 24
-18 45 -17 47 110 112 401 404 417 418 21 20 22 19 62 -20 22 -21 86 -88 141
-147 l101 -108 -23 -42 c-60 -112 -86 -281 -61 -412 37 -198 207 -377 408
-431 67 -17 203 -20 283 -4 133 25 265 120 349 250 196 302 50 728 -289 846
-144 50 -337 39 -464 -26 l-59 -30 -25 22 c-13 13 -78 80 -144 150 l-119 127
95 94 c93 91 96 95 96 139 0 36 -6 51 -26 72 -15 14 -32 26 -38 27 -6 0 -18 2
-26 3 -8 2 -28 -3 -45 -10z m685 -775 c77 -28 158 -98 195 -169 14 -26 14 -34
3 -48 -10 -12 -10 -14 0 -8 17 10 15 2 -7 -42 -26 -50 -55 -82 -75 -82 -9 0
-16 -4 -16 -10 0 -5 -7 -10 -15 -10 -9 0 -15 -9 -15 -21 0 -15 -5 -20 -22 -17
-20 3 -23 8 -20 43 3 52 -31 111 -78 136 -123 66 -246 -66 -184 -196 25 -53
148 -89 188 -56 9 8 19 11 22 8 8 -8 -37 -31 -61 -32 -11 0 -21 -8 -24 -20 -3
-15 -1 -17 10 -8 11 9 14 6 14 -13 0 -13 -1 -24 -2 -24 -1 0 -14 5 -29 10 -29
11 -68 4 -59 -11 4 -5 2 -9 -3 -9 -5 0 -12 -9 -15 -20 -3 -14 -14 -20 -32 -20
-15 0 -24 -4 -20 -10 3 -5 1 -10 -5 -10 -6 0 -8 -4 -5 -10 21 -34 -86 33 -129
80 -121 134 -124 320 -6 476 50 67 73 82 154 103 70 18 171 14 236 -10z
m-1685 -80 c86 -32 148 -87 187 -166 30 -61 33 -76 32 -148 -1 -57 -7 -93 -22
-125 -97 -216 -376 -261 -538 -88 -67 72 -89 126 -89 223 0 66 5 90 27 138 35
73 83 135 117 149 103 42 203 48 286 17z m1709 -345 c3 -8 2 -12 -4 -9 -6 3
-10 -3 -10 -14 0 -11 -4 -23 -10 -26 -13 -8 -12 -5 1 34 13 35 15 37 23 15z
m-239 -234 c-3 -5 -11 -10 -16 -10 -6 0 -7 5 -4 10 3 6 11 10 16 10 6 0 7 -4
4 -10z"/>
<path d="M6222 2115 c-51 -22 -71 -53 -72 -108 0 -43 5 -54 34 -83 30 -30 40
-34 84 -34 45 0 53 4 81 35 54 61 37 156 -33 189 -41 19 -51 19 -94 1z"/>
<path d="M4373 3045 c-30 -21 -42 -71 -29 -114 21 -71 137 -155 247 -180 24
-6 88 -11 142 -11 l97 0 0 -340 c0 -299 -2 -340 -15 -340 -35 0 -184 -65 -240
-105 -173 -123 -262 -312 -253 -538 9 -223 127 -411 319 -512 87 -45 173 -65
289 -65 196 0 346 66 462 202 101 119 138 215 145 378 6 135 -7 205 -62 317
-76 154 -206 255 -410 320 l-30 10 -3 336 -2 337 101 0 c145 0 233 26 326 96
73 55 99 151 53 199 -39 42 -81 34 -178 -32 l-84 -58 -308 -3 -308 -3 -83 57
c-92 62 -140 76 -176 49z m681 -1225 c94 -32 173 -96 211 -170 30 -59 41 -95
26 -86 -7 5 -9 1 -5 -9 10 -26 -16 -65 -40 -61 -12 2 -15 1 -8 -1 6 -3 12 -11
12 -19 0 -8 6 -14 13 -15 10 0 10 -2 0 -6 -7 -2 -13 -13 -13 -23 0 -10 -5 -22
-11 -26 -13 -8 -36 13 -25 23 4 4 12 1 17 -7 9 -12 10 -10 6 7 -3 12 -2 24 2
26 3 2 0 2 -8 0 -8 -2 -11 2 -7 12 3 10 2 13 -5 10 -6 -4 -8 -13 -5 -20 2 -7
-2 -16 -10 -19 -8 -3 -13 -11 -12 -18 2 -7 -6 -13 -17 -13 -13 0 -19 -6 -17
-17 1 -10 -7 -22 -20 -28 -22 -11 -22 -10 -4 4 11 9 18 17 15 18 -2 2 -14 9
-27 16 -22 12 -23 12 -12 -8 7 -13 7 -20 0 -20 -5 0 -10 5 -10 11 0 6 -7 9
-15 5 -12 -4 -13 -2 -5 13 15 28 2 74 -32 115 -81 99 -234 53 -246 -74 -4 -41
0 -56 19 -85 13 -19 40 -42 59 -52 19 -10 38 -22 41 -26 3 -4 13 -5 22 -1 10
3 17 1 17 -6 0 -6 -4 -9 -9 -5 -5 3 -16 -2 -24 -10 -9 -8 -20 -15 -26 -15 -6
0 -11 -6 -12 -12 0 -7 -2 -23 -5 -36 -2 -14 0 -21 6 -17 5 3 10 1 10 -4 0 -14
-13 -14 -26 -1 -13 13 -57 -17 -48 -32 4 -6 0 -14 -7 -19 -19 -12 -42 -11 -34
1 4 6 10 8 15 5 5 -3 11 -1 15 4 3 6 -4 8 -17 5 -13 -3 -28 -6 -35 -8 -7 -1
-16 -5 -19 -9 -21 -21 -134 92 -173 173 -23 49 -26 67 -26 160 0 95 3 110 28
160 89 176 101 187 227 221 79 21 174 17 254 -11z m249 -318 c-3 -12 -9 -19
-14 -16 -5 3 -4 14 2 25 13 26 20 21 12 -9z m-93 -112 c0 -5 -5 -10 -11 -10
-5 0 -7 5 -4 10 3 6 8 10 11 10 2 0 4 -4 4 -10z m-110 -49 c0 -13 -9 -20 -30
-23 -17 -3 -34 0 -37 5 -3 6 -1 7 5 3 6 -3 13 3 17 14 8 26 45 27 45 1z m-75
-91 c-3 -5 -13 -10 -21 -10 -8 0 -12 5 -9 10 3 6 13 10 21 10 8 0 12 -4 9 -10z
m-61 -9 c9 -14 -4 -41 -20 -41 -8 0 -14 8 -14 18 0 29 22 43 34 23z m-44 -21
c0 -5 -4 -10 -10 -10 -5 0 -10 5 -10 10 0 6 5 10 10 10 6 0 10 -4 10 -10z
m-50 -80 c0 -5 -4 -10 -10 -10 -5 0 -10 5 -10 10 0 6 5 10 10 10 6 0 10 -4 10
-10z"/>
<path d="M5157 1449 c7 -7 15 -10 18 -7 3 3 -2 9 -12 12 -14 6 -15 5 -6 -5z"/>
<path d="M5155 1420 c27 -12 43 -12 25 0 -8 5 -22 9 -30 9 -10 0 -8 -3 5 -9z"/>
<path d="M4861 1212 c-7 -14 -6 -19 3 -19 6 0 13 9 13 19 1 10 0 18 -2 18 -2
0 -9 -8 -14 -18z"/>
<path d="M4821 1184 c0 -11 3 -14 6 -6 3 7 2 16 -1 19 -3 4 -6 -2 -5 -13z"/>
<path d="M1968 3038 c-34 -12 -62 -68 -53 -108 4 -17 18 -39 32 -50 38 -29 79
-26 115 10 27 27 30 36 25 72 -3 22 -12 47 -19 54 -21 21 -70 32 -100 22z"/>
<path d="M7791 3014 c-42 -54 -18 -134 45 -150 60 -15 125 51 110 111 -11 43
-41 65 -90 65 -36 0 -48 -5 -65 -26z"/>
<path d="M4343 2534 c-38 -19 -73 -84 -73 -135 0 -67 70 -139 135 -139 74 0
145 70 145 142 0 109 -112 181 -207 132z"/>
<path d="M5382 2530 c-34 -21 -71 -87 -72 -128 0 -33 36 -99 65 -118 88 -57
215 12 215 118 0 114 -115 185 -208 128z"/>
<path d="M7035 1855 c-38 -37 -35 -95 6 -129 43 -36 83 -34 121 6 25 27 29 37
23 67 -13 75 -99 108 -150 56z"/>
</g>
</svg>
